<svg width="100%" height="100%" xmlns="http://www.w3.org/2000/svg" viewBox="200.203125 14 99.59375 122" style="background: none;" preserveAspectRatio="xMidYMid"><defs><linearGradient id="editing-gradient-gradient" x1="0" x2="1" y1="0.5" y2="0.5" gradientUnits="objectBoundingBox"><stop offset="0" stop-color="#91bcc6"></stop><stop offset="1" stop-color="#0ba0e7"></stop></linearGradient></defs><g><g transform="translate(208.8020362854004, 96.76000022888184)"><path d="M19.71 0L12.35 0L23.94-42.24L37.31-42.24L40.26-18.11L52.16-42.24L63.36-42.24L64.51-10.62L64.51-10.62Q64.77-4.35 67.84-2.43L67.84-2.43L67.84-2.43Q67.14-1.15 65.09 0.06L65.09 0.06L65.09 0.06Q63.04 1.28 60.32 1.28L60.32 1.28L60.32 1.28Q57.60 1.28 56 0.51L56 0.51L56 0.51Q54.40-0.26 53.50-1.54L53.50-1.54L53.50-1.54Q51.90-3.84 51.90-8.26L51.90-8.26L51.90-28.03L39.30 0L31.36 0L26.88-28.74L19.71 0Z" fill="url(#editing-gradient-gradient)"></path></g></g><style>text {
  font-size: 64px;
  font-family: Arial Black;
  dominant-baseline: central;
  text-anchor: middle;
}</style></svg>